<svg width="304" height="187" viewBox="0 0 304 187" fill="none" xmlns="http://www.w3.org/2000/svg" version="1.1">
<defs>
<linearGradient id="paint0_linear_23_31713" x1="157.204" y1="87.0857" x2="157.204" y2="-20.5835" gradientUnits="userSpaceOnUse">
<stop stop-color="#DEDEDE" stop-opacity="0"/>
<stop offset="1" stop-color="#A9A9A9" stop-opacity="0.3"/>
</linearGradient>
<linearGradient id="paint1_linear_23_31713" x1="143.891" y1="178.283" x2="143.891" y2="147.748" gradientUnits="userSpaceOnUse">
<stop stop-color="white" stop-opacity="0"/>
<stop offset="1" stop-color="#96A1C5" stop-opacity="0.373"/>
</linearGradient>
<linearGradient id="paint2_linear_23_31713" x1="152" y1="187" x2="152" y2="136.855" gradientUnits="userSpaceOnUse">
<stop stop-color="white" stop-opacity="0"/>
<stop offset="1" stop-color="#919191" stop-opacity="0.15"/>
</linearGradient>
<linearGradient id="paint3_linear_23_31713" x1="150.242" y1="93.6937" x2="150.242" y2="112.971" gradientUnits="userSpaceOnUse">
<stop stop-color="#5389F5"/>
<stop offset="1" stop-color="#416FDC"/>
</linearGradient>
<linearGradient id="paint4_linear_23_31713" x1="162.189" y1="149.73" x2="162.189" y2="110.445" gradientUnits="userSpaceOnUse">
<stop stop-color="#DCE9FF"/>
<stop offset="1" stop-color="#B6CFFF"/>
</linearGradient>
<linearGradient id="paint5_linear_23_31713" x1="150.244" y1="122.256" x2="150.244" y2="159.759" gradientUnits="userSpaceOnUse">
<stop stop-color="#7CA5F7"/>
<stop offset="1" stop-color="#C4D6FC"/>
</linearGradient>
</defs>
<path opacity="0.8" fill-rule="evenodd" clip-rule="evenodd" d="M61.0384 35.034C64.1645 25.1541 67.0737 19.0028 69.7612 16.5776C77.2039 9.86524 87.4945 13.5184 89.6823 14.0416C97.3678 15.8846 94.8689 3.75628 101.463 1.29102C105.857 -0.351707 109.471 1.65633 112.307 7.31513C114.818 2.03578 118.644 -0.382346 123.786 0.048958C131.5 0.701806 134.199 26.7474 144.799 21.0461C155.401 15.3426 168.398 14.0392 173.95 22.5145C175.15 24.3481 175.609 21.5034 183.771 11.7908C191.933 2.07585 200.071 -2.20419 216.767 3.45225C224.358 6.02122 230.601 12.9857 235.502 24.3434C235.502 40.5538 247.431 50.1509 271.285 53.1276C307.07 57.5938 279.293 96.0553 235.502 107.319C191.709 118.584 90.8847 124.665 36.1712 96.2038C-0.304367 77.2335 7.98468 56.842 61.036 35.034H61.0384Z" fill="url(#paint0_linear_23_31713)"/>
<path d="M150.766 178.283C187.206 178.283 216.746 171.448 216.746 163.016C216.746 154.584 187.206 147.748 150.766 147.748C114.326 147.748 84.7858 154.584 84.7858 163.016C84.7858 171.448 114.326 178.283 150.766 178.283Z" fill="url(#paint1_linear_23_31713)"/>
<path opacity="0.675" fill-rule="evenodd" clip-rule="evenodd" d="M262.159 182.066C212.549 194.506 43.2155 180.277 25.1923 173.779C16.4199 170.614 8.51279 164.663 1.47322 155.924C0.685339 154.947 0.190104 153.767 0.0447464 152.52C-0.100612 151.273 0.109841 150.011 0.651784 148.879C1.19373 147.747 2.04504 146.791 3.10735 146.122C4.16966 145.453 5.39961 145.099 6.65506 145.099H302.557C308.699 161.451 295.232 173.772 262.159 182.066Z" fill="url(#paint2_linear_23_31713)"/>
<path d="M201.396 122.098L178.832 95.7206C178.298 95.0913 177.635 94.5845 176.888 94.2347C176.141 93.8849 175.327 93.7004 174.501 93.6937H125.983C124.319 93.6937 122.737 94.4573 121.653 95.7206L99.0889 122.098V136.579H201.396V122.098Z" fill="url(#paint3_linear_23_31713)"/>
<path d="M195.002 137.112L175.253 114.137C174.776 113.595 174.187 113.161 173.528 112.866C172.868 112.571 172.152 112.422 171.43 112.428H129.055C127.601 112.428 126.179 113.032 125.231 114.137L105.482 137.112V149.73H195.002V137.112Z" fill="url(#paint4_linear_23_31713)"/>
<path d="M201.396 153.174C201.396 155.184 200.491 156.992 199.062 158.203L198.772 158.439C197.639 159.297 196.256 159.761 194.835 159.759H105.652C104.846 159.759 104.075 159.612 103.363 159.344L103.009 159.202C101.843 158.683 100.852 157.838 100.156 156.767C99.4599 155.697 99.0893 154.448 99.0889 153.171V122.256H123.911C126.653 122.256 128.862 124.512 128.862 127.248V127.284C128.862 130.022 131.097 132.231 133.839 132.231H166.646C167.964 132.229 169.228 131.706 170.16 130.775C171.093 129.845 171.619 128.582 171.623 127.265C171.623 124.517 173.834 122.256 176.574 122.256H201.398L201.396 153.174Z" fill="url(#paint5_linear_23_31713)"/>
</svg>
