<svg width="32" height="32" viewBox="0 0 32 32" fill="none" xmlns="http://www.w3.org/2000/svg">
<defs>
<linearGradient id="paint0_linear_194_19903" x1="14.6786" y1="8.50161e-07" x2="27.9687" y2="8.11606" gradientUnits="userSpaceOnUse">
<stop stop-color="#4285EB"/>
<stop offset="1" stop-color="#2EC7FF"/>
</linearGradient>
<linearGradient id="paint1_linear_194_19903" x1="16.4612" y1="-2.21999e-07" x2="9.89714" y2="33.925" gradientUnits="userSpaceOnUse">
<stop stop-color="#29CDFF"/>
<stop offset="0.378601" stop-color="#148EFF"/>
<stop offset="1" stop-color="#0A60FF"/>
</linearGradient>
<linearGradient id="paint2_linear_194_19903" x1="29.4264" y1="8.14171" x2="20.8855" y2="21.499" gradientUnits="userSpaceOnUse">
<stop stop-color="#FA816E"/>
<stop offset="0.414726" stop-color="#F74A5C"/>
<stop offset="1" stop-color="#F51D2C"/>
</linearGradient>
<linearGradient id="paint3_linear_194_19903" x1="17.3472" y1="9.50148" x2="14.5054" y2="20.8691" gradientUnits="userSpaceOnUse">
<stop stop-color="#FA8E7D"/>
<stop offset="0.512635" stop-color="#F74A5C"/>
<stop offset="1" stop-color="#F51D2C"/>
</linearGradient>
</defs>
<path d="M14.5492 0.565966L0.563905 14.5398C-0.187968 15.291 -0.187968 16.5044 0.563905 17.2557L14.5492 31.2295C15.3011 31.9807 16.5155 31.9807 17.2674 31.2295L23.1312 25.3705C23.8045 24.6977 23.8045 23.6068 23.1312 22.934C22.4578 22.2612 21.3661 22.2612 20.6927 22.934L16.2474 27.3757C16.0603 27.5627 15.7763 27.5627 15.5891 27.3757L4.42086 16.2166C4.23372 16.0296 4.23372 15.7458 4.42086 15.5589L15.5891 4.39978C15.7763 4.2128 16.0603 4.2128 16.2474 4.39978L20.6927 8.84145C21.3661 9.51426 22.4578 9.51426 23.1312 8.84145C23.8045 8.16865 23.8045 7.07782 23.1312 6.40502L17.268 0.546641C16.513 -0.188356 15.2982 -0.182406 14.5492 0.565966Z" fill="url(#paint0_linear_194_19903)"/>
<path d="M14.5492 0.565966L0.563905 14.5398C-0.187968 15.291 -0.187968 16.5044 0.563905 17.2557L14.5492 31.2295C15.3011 31.9807 16.5155 31.9807 17.2674 31.2295L23.1312 25.3705C23.8045 24.6977 23.8045 23.6068 23.1312 22.934C22.4578 22.2612 21.3661 22.2612 20.6927 22.934L16.2474 27.3757C16.0603 27.5627 15.7763 27.5627 15.5891 27.3757L4.42086 16.2166C4.23372 16.0296 4.23372 15.7458 4.42086 15.5589L15.5891 4.39978C16.0551 3.99807 16.8154 3.18441 17.9319 2.99411C18.7616 2.85269 19.6687 3.16397 20.6533 3.92795C19.9951 3.27027 18.8666 2.14317 17.268 0.546641C16.513 -0.188356 15.2982 -0.182406 14.5492 0.565966Z" fill="url(#paint1_linear_194_19903)"/>
<path d="M24.4848 21.6344C25.1582 22.3072 26.2499 22.3072 26.9232 21.6344L31.2487 17.3125C32.0006 16.5613 32.0006 15.3479 31.2488 14.5967L26.8856 10.2526C26.2107 9.58057 25.1186 9.58154 24.4448 10.2547C23.7715 10.9275 23.7715 12.0184 24.4448 12.6912L27.3917 15.6357C27.5789 15.8226 27.5789 16.1064 27.3917 16.2934L24.4848 19.198C23.8114 19.8708 23.8114 20.9616 24.4848 21.6344Z" fill="url(#paint2_linear_194_19903)"/>
<path d="M15.9782 19.7405C18.0636 19.7405 19.7542 18.0513 19.7542 15.9676C19.7542 13.8838 18.0636 12.1946 15.9782 12.1946C13.8927 12.1946 12.2021 13.8838 12.2021 15.9676C12.2021 18.0513 13.8927 19.7405 15.9782 19.7405Z" fill="url(#paint3_linear_194_19903)"/>
</svg>
